<svg xmlns="http://www.w3.org/2000/svg" width="30.25" height="25.999" viewBox="0 0 30.25 25.999">
  <g id="Group_10" data-name="Group 10" transform="translate(-8560 5517)">
    <path id="Union_1" data-name="Union 1" d="M5,25a5,5,0,0,1-5-5V5A5,5,0,0,1,5,0H20a5,5,0,0,1,5,5V9.275l3.776,5.254H25V20a5,5,0,0,1-5,5Z" transform="translate(8560.5 -5516.5)" fill="#fff" stroke="#c0c1c3" stroke-width="1"/>
    <g id="_x30_1._Facebook" transform="translate(8540.626 -5521.499)">
      <path id="Icon_11_" d="M30.636,18.468H28.772c-.293,0-.4-.106-.4-.4q0-1.137,0-2.274c0-.291.111-.4.4-.4h1.861c0-.052,0-1.146,0-1.65a4.115,4.115,0,0,1,.512-2.111,3.108,3.108,0,0,1,1.674-1.391A4.139,4.139,0,0,1,34.257,10H36.1c.264,0,.381.117.382.383q0,1.07,0,2.139c0,.269-.113.377-.383.38-.5.005-1.008,0-1.511.022a.685.685,0,0,0-.776.774c-.012.556-.005,1.114-.005,1.69h2.17c.307,0,.412.106.412.414q0,1.131,0,2.262c0,.3-.1.4-.408.4H33.8v6.1c0,.325-.1.429-.423.429H31.03c-.284,0-.394-.11-.394-.394,0-1.987,0-6.067,0-6.137Z" transform="translate(0 0)" fill="#3d6ad6"/>
    </g>
  </g>
</svg>
