<svg width="324" height="96" viewBox="0 0 324 96" fill="none" xmlns="http://www.w3.org/2000/svg">
<path d="M17.7952 33.4614C12.6952 33.4614 8.60016 31.9164 5.51016 28.8264C2.42016 25.7064 0.875156 21.7014 0.875156 16.8114C0.875156 11.9214 2.42016 7.9314 5.51016 4.8414C8.60016 1.7214 12.6952 0.1614 17.7952 0.1614C22.3552 0.1614 26.0602 1.2864 28.9102 3.5364C31.7902 5.7564 33.4402 8.7414 33.8602 12.4914H26.1202C25.7002 10.6914 24.7702 9.2814 23.3302 8.2614C21.8902 7.2114 20.0602 6.6864 17.8402 6.6864C14.9002 6.6864 12.6052 7.6014 10.9552 9.4314C9.30516 11.2314 8.48016 13.6914 8.48016 16.8114C8.48016 19.9314 9.30516 22.4064 10.9552 24.2364C12.6052 26.0364 14.9002 26.9364 17.8402 26.9364C20.0602 26.9364 21.8902 26.4264 23.3302 25.4064C24.7702 24.3564 25.7002 22.9314 26.1202 21.1314H33.8602C33.4402 24.8814 31.7902 27.8814 28.9102 30.1314C26.0602 32.3514 22.3552 33.4614 17.7952 33.4614ZM45.7001 33.1464C43.1201 33.1464 41.1401 32.3814 39.7601 30.8514C38.3801 29.2914 37.6901 27.1014 37.6901 24.2814V10.8714H44.6651V22.7514C44.6651 25.8114 45.8651 27.3414 48.2651 27.3414C51.0551 27.3414 52.4501 25.7364 52.4501 22.5264V10.8714H59.2901V32.5614H52.4501V29.4564C51.1601 31.9164 48.9101 33.1464 45.7001 33.1464ZM73.6704 33.1464C70.5804 33.1464 68.0904 32.5014 66.2004 31.2114C64.3404 29.8914 63.4104 28.1664 63.4104 26.0364H70.2504C70.2504 26.7864 70.5804 27.4014 71.2404 27.8814C71.9004 28.3314 72.7554 28.5564 73.8054 28.5564C74.5554 28.5564 75.1554 28.3914 75.6054 28.0614C76.0854 27.7014 76.3254 27.2064 76.3254 26.5764C76.3254 26.0664 76.1604 25.6614 75.8304 25.3614C75.5004 25.0314 74.8854 24.7614 73.9854 24.5514L69.4404 23.4264C65.8104 22.5264 63.9954 20.4114 63.9954 17.0814C63.9954 15.0414 64.8354 13.4064 66.5154 12.1764C68.2254 10.9164 70.4754 10.2864 73.2654 10.2864C76.3254 10.2864 78.6954 10.8714 80.3754 12.0414C82.0854 13.1814 82.9404 14.8314 82.9404 16.9914H76.1454C76.1454 15.4314 75.1554 14.6514 73.1754 14.6514C72.4254 14.6514 71.8254 14.8164 71.3754 15.1464C70.9254 15.4764 70.7004 15.8964 70.7004 16.4064C70.7004 17.3664 71.4954 18.0564 73.0854 18.4764L77.6754 19.7364C81.3354 20.6964 83.1654 22.7814 83.1654 25.9914C83.1654 28.2114 82.3104 29.9664 80.6004 31.2564C78.8904 32.5164 76.5804 33.1464 73.6704 33.1464ZM98.5188 27.2064C99.4788 27.2064 100.274 27.1614 100.904 27.0714V32.5614C99.5838 32.8014 98.0538 32.9214 96.3138 32.9214C95.5338 32.9214 94.8438 32.8764 94.2438 32.7864C93.6438 32.6964 92.9688 32.5014 92.2188 32.2014C91.4688 31.8714 90.8538 31.4364 90.3738 30.8964C89.8938 30.3564 89.4738 29.5764 89.1138 28.5564C88.7838 27.5364 88.6188 26.3364 88.6188 24.9564V16.3164H85.1988V10.8714H88.6188V4.4364H95.5038V10.8714H100.409V16.3164H95.5038V23.5164C95.5038 24.9864 95.7588 25.9764 96.2688 26.4864C96.7788 26.9664 97.5288 27.2064 98.5188 27.2064ZM115.194 33.1464C111.504 33.1464 108.564 32.0814 106.374 29.9514C104.214 27.8214 103.134 25.0764 103.134 21.7164C103.134 18.3564 104.214 15.6114 106.374 13.4814C108.564 11.3514 111.504 10.2864 115.194 10.2864C118.854 10.2864 121.764 11.3514 123.924 13.4814C126.114 15.6114 127.209 18.3564 127.209 21.7164C127.209 25.0764 126.114 27.8214 123.924 29.9514C121.764 32.0814 118.854 33.1464 115.194 33.1464ZM115.194 27.3414C116.784 27.3414 118.044 26.8314 118.974 25.8114C119.904 24.7614 120.369 23.3964 120.369 21.7164C120.369 20.0364 119.904 18.6864 118.974 17.6664C118.044 16.6164 116.784 16.0914 115.194 16.0914C113.574 16.0914 112.299 16.6164 111.369 17.6664C110.469 18.6864 110.019 20.0364 110.019 21.7164C110.019 23.3964 110.469 24.7614 111.369 25.8114C112.299 26.8314 113.574 27.3414 115.194 27.3414ZM131.167 32.5614V10.8714H138.052V14.0214C138.532 12.9114 139.312 12.0114 140.392 11.3214C141.502 10.6314 142.792 10.2864 144.262 10.2864C147.682 10.2864 149.947 11.6214 151.057 14.2914C151.657 13.0914 152.572 12.1314 153.802 11.4114C155.032 10.6614 156.427 10.2864 157.987 10.2864C163.117 10.2864 165.682 13.2264 165.682 19.1064V32.5614H158.752V20.3664C158.752 17.5164 157.672 16.0914 155.512 16.0914C153.082 16.0914 151.867 17.8614 151.867 21.4014V32.5614H144.937V20.3214C144.937 17.5014 143.872 16.0914 141.742 16.0914C140.542 16.0914 139.627 16.4964 138.997 17.3064C138.367 18.0864 138.052 19.4514 138.052 21.4014V32.5614H131.167ZM192.443 20.5914C192.443 21.5214 192.383 22.5264 192.263 23.6064H176.243C176.303 25.0164 176.783 26.0964 177.683 26.8464C178.583 27.5964 179.798 27.9714 181.328 27.9714C183.458 27.9714 184.808 27.3264 185.378 26.0364H192.128C191.798 28.1664 190.628 29.8914 188.618 31.2114C186.638 32.5014 184.208 33.1464 181.328 33.1464C177.608 33.1464 174.683 32.1414 172.553 30.1314C170.453 28.1214 169.403 25.3164 169.403 21.7164C169.403 18.1764 170.453 15.3864 172.553 13.3464C174.683 11.3064 177.533 10.2864 181.103 10.2864C184.463 10.2864 187.193 11.2464 189.293 13.1664C191.393 15.0564 192.443 17.5314 192.443 20.5914ZM176.243 19.3314H185.648C185.588 16.3914 184.058 14.9214 181.058 14.9214C179.588 14.9214 178.418 15.3264 177.548 16.1364C176.708 16.9164 176.273 17.9814 176.243 19.3314ZM196.382 32.5614V10.8714H203.267V15.4164C203.627 13.8564 204.362 12.6564 205.472 11.8164C206.612 10.9464 207.872 10.5114 209.252 10.5114C209.972 10.5114 210.572 10.5714 211.052 10.6914V17.0814C210.242 16.9914 209.552 16.9464 208.982 16.9464C205.172 16.9464 203.267 19.3614 203.267 24.1914V32.5614H196.382ZM223.128 33.1464C220.038 33.1464 217.548 32.5014 215.658 31.2114C213.798 29.8914 212.868 28.1664 212.868 26.0364H219.708C219.708 26.7864 220.038 27.4014 220.698 27.8814C221.358 28.3314 222.213 28.5564 223.263 28.5564C224.013 28.5564 224.613 28.3914 225.063 28.0614C225.543 27.7014 225.783 27.2064 225.783 26.5764C225.783 26.0664 225.618 25.6614 225.288 25.3614C224.958 25.0314 224.343 24.7614 223.443 24.5514L218.898 23.4264C215.268 22.5264 213.453 20.4114 213.453 17.0814C213.453 15.0414 214.293 13.4064 215.973 12.1764C217.683 10.9164 219.933 10.2864 222.723 10.2864C225.783 10.2864 228.153 10.8714 229.833 12.0414C231.543 13.1814 232.398 14.8314 232.398 16.9914H225.603C225.603 15.4314 224.613 14.6514 222.633 14.6514C221.883 14.6514 221.283 14.8164 220.833 15.1464C220.383 15.4764 220.158 15.8964 220.158 16.4064C220.158 17.3664 220.953 18.0564 222.543 18.4764L227.133 19.7364C230.793 20.6964 232.623 22.7814 232.623 25.9914C232.623 28.2114 231.768 29.9664 230.058 31.2564C228.348 32.5164 226.038 33.1464 223.128 33.1464ZM2.72016 94.5614V63.0614H14.6002C19.4902 63.0614 23.3902 64.5764 26.3002 67.6064C29.2102 70.6364 30.6652 74.3714 30.6652 78.8114C30.6652 83.2514 29.2102 86.9864 26.3002 90.0164C23.4202 93.0464 19.5202 94.5614 14.6002 94.5614H2.72016ZM10.0102 88.4414H13.9252C16.8652 88.4414 19.1302 87.5114 20.7202 85.6514C22.3402 83.7614 23.1502 81.4814 23.1502 78.8114C23.1502 76.1414 22.3402 73.8764 20.7202 72.0164C19.1302 70.1264 16.8652 69.1814 13.9252 69.1814H10.0102V88.4414ZM45.5844 95.1464C41.8944 95.1464 38.9544 94.0814 36.7644 91.9514C34.6044 89.8214 33.5244 87.0764 33.5244 83.7164C33.5244 80.3564 34.6044 77.6114 36.7644 75.4814C38.9544 73.3514 41.8944 72.2864 45.5844 72.2864C49.2444 72.2864 52.1544 73.3514 54.3144 75.4814C56.5044 77.6114 57.5994 80.3564 57.5994 83.7164C57.5994 87.0764 56.5044 89.8214 54.3144 91.9514C52.1544 94.0814 49.2444 95.1464 45.5844 95.1464ZM45.5844 89.3414C47.1744 89.3414 48.4344 88.8314 49.3644 87.8114C50.2944 86.7614 50.7594 85.3964 50.7594 83.7164C50.7594 82.0364 50.2944 80.6864 49.3644 79.6664C48.4344 78.6164 47.1744 78.0914 45.5844 78.0914C43.9644 78.0914 42.6894 78.6164 41.7594 79.6664C40.8594 80.6864 40.4094 82.0364 40.4094 83.7164C40.4094 85.3964 40.8594 86.7614 41.7594 87.8114C42.6894 88.8314 43.9644 89.3414 45.5844 89.3414ZM65.8088 94.5614L57.9788 72.8714H65.1788L69.0938 86.0114L72.7838 72.8714H79.4888L83.1788 86.0114L87.0938 72.8714H94.2488L86.4638 94.5614H80.2988L76.1138 81.3764L71.9738 94.5614H65.8088ZM97.2852 94.5614V72.8714H104.17V76.0214C105.46 73.5314 107.8 72.2864 111.19 72.2864C116.47 72.2864 119.11 75.2414 119.11 81.1514V94.5614H112.18V83.4014C112.18 81.5414 111.88 80.1914 111.28 79.3514C110.71 78.5114 109.735 78.0914 108.355 78.0914C105.565 78.0914 104.17 79.8014 104.17 83.2214V94.5614H97.2852ZM124.487 94.5614V63.0614H131.372V94.5614H124.487ZM147.406 95.1464C143.716 95.1464 140.776 94.0814 138.586 91.9514C136.426 89.8214 135.346 87.0764 135.346 83.7164C135.346 80.3564 136.426 77.6114 138.586 75.4814C140.776 73.3514 143.716 72.2864 147.406 72.2864C151.066 72.2864 153.976 73.3514 156.136 75.4814C158.326 77.6114 159.421 80.3564 159.421 83.7164C159.421 87.0764 158.326 89.8214 156.136 91.9514C153.976 94.0814 151.066 95.1464 147.406 95.1464ZM147.406 89.3414C148.996 89.3414 150.256 88.8314 151.186 87.8114C152.116 86.7614 152.581 85.3964 152.581 83.7164C152.581 82.0364 152.116 80.6864 151.186 79.6664C150.256 78.6164 148.996 78.0914 147.406 78.0914C145.786 78.0914 144.511 78.6164 143.581 79.6664C142.681 80.6864 142.231 82.0364 142.231 83.7164C142.231 85.3964 142.681 86.7614 143.581 87.8114C144.511 88.8314 145.786 89.3414 147.406 89.3414ZM172.371 95.1464C169.221 95.1464 166.731 94.0814 164.901 91.9514C163.071 89.8214 162.156 87.0764 162.156 83.7164C162.156 80.4164 163.101 77.6864 164.991 75.5264C166.881 73.3664 169.371 72.2864 172.461 72.2864C173.991 72.2864 175.356 72.6164 176.556 73.2764C177.756 73.9364 178.656 74.8364 179.256 75.9764V72.8714H186.096V94.5614H179.256V91.5014C178.656 92.5814 177.726 93.4664 176.466 94.1564C175.236 94.8164 173.871 95.1464 172.371 95.1464ZM174.351 89.4314C176.001 89.4314 177.276 88.8914 178.176 87.8114C179.076 86.7314 179.526 85.3664 179.526 83.7164C179.526 82.0964 179.076 80.7464 178.176 79.6664C177.276 78.5864 176.001 78.0464 174.351 78.0464C172.791 78.0464 171.531 78.5714 170.571 79.6214C169.641 80.6714 169.176 82.0364 169.176 83.7164C169.176 85.3964 169.641 86.7764 170.571 87.8564C171.531 88.9064 172.791 89.4314 174.351 89.4314ZM207.337 63.0614H214.177V94.5614H207.337V91.5014C206.737 92.5814 205.807 93.4664 204.547 94.1564C203.317 94.8164 201.952 95.1464 200.452 95.1464C197.302 95.1464 194.812 94.0814 192.982 91.9514C191.152 89.8214 190.237 87.0764 190.237 83.7164C190.237 80.4164 191.182 77.6864 193.072 75.5264C194.962 73.3664 197.452 72.2864 200.542 72.2864C202.072 72.2864 203.437 72.6164 204.637 73.2764C205.837 73.9364 206.737 74.8364 207.337 75.9764V63.0614ZM202.432 89.4314C204.082 89.4314 205.357 88.8914 206.257 87.8114C207.157 86.7314 207.607 85.3664 207.607 83.7164C207.607 82.0964 207.157 80.7464 206.257 79.6664C205.357 78.5864 204.082 78.0464 202.432 78.0464C200.872 78.0464 199.612 78.5714 198.652 79.6214C197.722 80.6714 197.257 82.0364 197.257 83.7164C197.257 85.3964 197.722 86.7764 198.652 87.8564C199.612 88.9064 200.872 89.4314 202.432 89.4314ZM244.74 72.2864C250.02 72.2864 252.66 75.2414 252.66 81.1514V94.5614H245.73V83.4014C245.73 81.5414 245.43 80.1914 244.83 79.3514C244.26 78.5114 243.285 78.0914 241.905 78.0914C239.115 78.0914 237.72 79.8014 237.72 83.2214V94.5614H230.835V63.0614H237.72V76.0214C239.01 73.5314 241.35 72.2864 244.74 72.2864ZM279.499 82.5914C279.499 83.5214 279.439 84.5264 279.319 85.6064H263.299C263.359 87.0164 263.839 88.0964 264.739 88.8464C265.639 89.5964 266.854 89.9714 268.384 89.9714C270.514 89.9714 271.864 89.3264 272.434 88.0364H279.184C278.854 90.1664 277.684 91.8914 275.674 93.2114C273.694 94.5014 271.264 95.1464 268.384 95.1464C264.664 95.1464 261.739 94.1414 259.609 92.1314C257.509 90.1214 256.459 87.3164 256.459 83.7164C256.459 80.1764 257.509 77.3864 259.609 75.3464C261.739 73.3064 264.589 72.2864 268.159 72.2864C271.519 72.2864 274.249 73.2464 276.349 75.1664C278.449 77.0564 279.499 79.5314 279.499 82.5914ZM263.299 81.3314H272.704C272.644 78.3914 271.114 76.9214 268.114 76.9214C266.644 76.9214 265.474 77.3264 264.604 78.1364C263.764 78.9164 263.329 79.9814 263.299 81.3314ZM283.438 94.5614V72.8714H290.323V77.4164C290.683 75.8564 291.418 74.6564 292.528 73.8164C293.668 72.9464 294.928 72.5114 296.308 72.5114C297.028 72.5114 297.628 72.5714 298.108 72.6914V79.0814C297.298 78.9914 296.608 78.9464 296.038 78.9464C292.228 78.9464 290.323 81.3614 290.323 86.1914V94.5614H283.438ZM323.005 82.5914C323.005 83.5214 322.945 84.5264 322.825 85.6064H306.805C306.865 87.0164 307.345 88.0964 308.245 88.8464C309.145 89.5964 310.36 89.9714 311.89 89.9714C314.02 89.9714 315.37 89.3264 315.94 88.0364H322.69C322.36 90.1664 321.19 91.8914 319.18 93.2114C317.2 94.5014 314.77 95.1464 311.89 95.1464C308.17 95.1464 305.245 94.1414 303.115 92.1314C301.015 90.1214 299.965 87.3164 299.965 83.7164C299.965 80.1764 301.015 77.3864 303.115 75.3464C305.245 73.3064 308.095 72.2864 311.665 72.2864C315.025 72.2864 317.755 73.2464 319.855 75.1664C321.955 77.0564 323.005 79.5314 323.005 82.5914ZM306.805 81.3314H316.21C316.15 78.3914 314.62 76.9214 311.62 76.9214C310.15 76.9214 308.98 77.3264 308.11 78.1364C307.27 78.9164 306.835 79.9814 306.805 81.3314Z" fill="url(#paint0_linear_1093_2206)"/>
<defs>
<linearGradient id="paint0_linear_1093_2206" x1="-0.339842" y1="51.462" x2="462.339" y2="51.462" gradientUnits="userSpaceOnUse">
<stop stop-color="#DB5B1B"/>
<stop offset="1" stop-color="#AE7CF3"/>
</linearGradient>
</defs>
</svg>
