<svg width="196" height="139" viewBox="0 0 196 139" fill="none" xmlns="http://www.w3.org/2000/svg">
<path d="M2.45283 59.3961C1.66306 59.146 0.820079 59.5835 0.569986 60.3732C0.319892 61.163 0.75739 62.006 1.54717 62.2561L2.45283 59.3961ZM194.023 138.5C194.851 138.487 195.512 137.806 195.5 136.977L195.297 123.479C195.285 122.651 194.603 121.989 193.775 122.002C192.946 122.014 192.285 122.696 192.297 123.524L192.478 135.523L180.479 135.703C179.651 135.715 178.989 136.397 179.002 137.225C179.014 138.054 179.696 138.715 180.524 138.703L194.023 138.5ZM1.54717 62.2561C14.4688 66.3479 36.2649 71.2427 59.7742 72.6711C83.2536 74.0977 108.64 72.0799 128.605 62.1696L127.271 59.4825C107.996 69.0505 83.2283 71.0907 59.9561 69.6767C36.7137 68.2645 15.1607 63.4202 2.45283 59.3961L1.54717 62.2561ZM128.605 62.1696C148.593 52.2478 158.606 37.1834 161.28 24.4162C162.612 18.0549 162.136 12.1724 160.036 7.80257C157.907 3.37425 154.084 0.5 149 0.5V3.5C152.754 3.5 155.622 5.54422 157.332 9.10231C159.071 12.7189 159.582 17.8908 158.344 23.8012C155.878 35.5774 146.523 49.9261 127.271 59.4825L128.605 62.1696ZM149 0.5C143.212 0.5 137.766 4.26844 134.25 10.8562C130.729 17.453 129.059 26.9773 130.704 38.9541C133.995 62.9111 150.575 96.9497 192.955 138.076L195.045 135.924C152.925 95.0503 136.842 61.5889 133.676 38.5459C132.093 27.0227 133.746 18.172 136.896 12.2688C140.052 6.35656 144.624 3.5 149 3.5V0.5Z" fill="url(#paint0_linear_1093_2296)"/>
<defs>
<linearGradient id="paint0_linear_1093_2296" x1="-3.5" y1="61" x2="219" y2="107.5" gradientUnits="userSpaceOnUse">
<stop stop-color="#EC9422"/>
<stop offset="1" stop-color="#EC9422" stop-opacity="0"/>
</linearGradient>
</defs>
</svg>
