<svg xmlns="http://www.w3.org/2000/svg" width="53" height="53" viewBox="0 0 53 53">
  <g id="Group_6776" data-name="Group 6776" transform="translate(-47 -603)">
    <circle id="Ellipse_2" data-name="Ellipse 2" cx="26.5" cy="26.5" r="26.5" transform="translate(47 603)" fill="#7f5cfe"/>
    <g id="measuring" transform="translate(32 550)">
      <path id="Path_64" data-name="Path 64" d="M248,152h12.672v8.448H248Z" transform="translate(-207.103 -81.362)" fill="#ffc11c"/>
      <ellipse id="Ellipse_7" data-name="Ellipse 7" cx="12.069" cy="6.638" rx="12.069" ry="6.638" transform="translate(29.431 64)" fill="#f79826"/>
      <ellipse id="Ellipse_8" data-name="Ellipse 8" cx="6.034" cy="2.414" rx="6.034" ry="2.414" transform="translate(35.466 68.224)" fill="#e8732d"/>
      <path id="Path_65" data-name="Path 65" d="M125.569,162.862v4.224h-17.5c-6.666,0-12.069-2.972-12.069-6.638V152c0,2.019,1.638,3.827,4.224,5.044.382.18.785.347,1.207.5a16.674,16.674,0,0,0,1.81.541q.588.143,1.207.249c.585.1,1.19.179,1.81.23.4.032.8.055,1.207.066q.3.008.6.008h13.276a4.22,4.22,0,0,1,4.224,4.224Z" transform="translate(-66.569 -81.362)" fill="#faac25"/>
      <path id="Path_66" data-name="Path 66" d="M59,295.994v7.241a4.224,4.224,0,0,1-4.224,4.224H24v-7.241H54.776A4.224,4.224,0,0,0,59,295.993Z" transform="translate(0 -214.494)" fill="#ffc11c"/>
      <path id="Path_67" data-name="Path 67" d="M24,352h7.845v7.241H24Z" transform="translate(0 -266.276)" fill="#b3b2b3"/>
      <path id="Path_68" data-name="Path 68" d="M48,376h1.207v3.621H48Z" transform="translate(-22.19 -288.466)" fill="#979797"/>
      <path id="Path_69" data-name="Path 69" d="M80,376h1.207v1.207H80Z" transform="translate(-51.776 -288.466)" fill="#979797"/>
      <path id="Path_70" data-name="Path 70" d="M80,408h1.207v1.207H80Z" transform="translate(-51.776 -318.052)" fill="#979797"/>
      <g id="Group_6771" data-name="Group 6771" transform="translate(33.655 75.682)">
        <path id="Path_71" data-name="Path 71" d="M152,352h1.207v1.81H152Z" transform="translate(-152 -341.958)" fill="#e8732d"/>
        <path id="Path_72" data-name="Path 72" d="M192,352h1.207v1.81H192Z" transform="translate(-188.983 -341.958)" fill="#e8732d"/>
        <path id="Path_73" data-name="Path 73" d="M232,352h1.207v4.224H232Z" transform="translate(-225.966 -341.958)" fill="#e8732d"/>
        <path id="Path_74" data-name="Path 74" d="M272,352h1.207v1.81H272Z" transform="translate(-262.948 -341.958)" fill="#e8732d"/>
        <path id="Path_75" data-name="Path 75" d="M312,352h1.207v1.81H312Z" transform="translate(-299.931 -341.958)" fill="#e8732d"/>
        <path id="Path_76" data-name="Path 76" d="M352,352h1.207v4.224H352Z" transform="translate(-336.914 -341.958)" fill="#e8732d"/>
        <path id="Path_77" data-name="Path 77" d="M392,352h1.207v1.81H392Z" transform="translate(-373.897 -341.958)" fill="#e8732d"/>
        <path id="Path_78" data-name="Path 78" d="M433.207,349.68v1.985H432v-1.81A4.224,4.224,0,0,0,433.207,349.68Z" transform="translate(-410.879 -339.813)" fill="#e8732d"/>
        <path id="Path_79" data-name="Path 79" d="M153.207,219.37v2.9H152v-3.4C152.382,219.05,152.785,219.217,153.207,219.37Z" transform="translate(-152 -218.87)" fill="#e8732d"/>
        <path id="Path_80" data-name="Path 80" d="M193.207,232.919v2.114H192V232.67Q192.588,232.813,193.207,232.919Z" transform="translate(-188.983 -231.629)" fill="#e8732d"/>
        <path id="Path_81" data-name="Path 81" d="M233.207,239.086v4.232H232v-4.3C232.4,239.052,232.8,239.075,233.207,239.086Z" transform="translate(-225.966 -237.5)" fill="#e8732d"/>
        <path id="Path_82" data-name="Path 82" d="M272,240h1.207v1.81H272Z" transform="translate(-262.948 -238.406)" fill="#e8732d"/>
        <path id="Path_83" data-name="Path 83" d="M312,240h1.207v1.81H312Z" transform="translate(-299.931 -238.406)" fill="#e8732d"/>
        <path id="Path_84" data-name="Path 84" d="M352,240h1.207v4.224H352Z" transform="translate(-336.914 -238.406)" fill="#e8732d"/>
        <path id="Path_85" data-name="Path 85" d="M392,240h1.207v1.81H392Z" transform="translate(-373.897 -238.406)" fill="#e8732d"/>
        <path id="Path_86" data-name="Path 86" d="M433.207,240.175v1.635H432V240A4.223,4.223,0,0,1,433.207,240.175Z" transform="translate(-410.879 -238.406)" fill="#e8732d"/>
      </g>
    </g>
  </g>
</svg>
