<svg width="267" height="121" viewBox="0 0 267 121" fill="none" xmlns="http://www.w3.org/2000/svg">
<path d="M264.028 1.03678C264.586 0.423665 265.534 0.378269 266.147 0.935388C266.76 1.49251 266.806 2.44117 266.249 3.05428L264.028 1.03678ZM0.731125 108.764C0.260796 108.082 0.43241 107.148 1.11439 106.677L12.2279 99.0131C12.9099 98.5428 13.844 98.7144 14.3143 99.3964C14.7846 100.078 14.6131 101.013 13.9311 101.483L4.05236 108.295L10.8649 118.174C11.3353 118.856 11.1636 119.79 10.4817 120.261C9.79968 120.731 8.86556 120.559 8.39526 119.877L0.731125 108.764ZM266.249 3.05428C246.123 25.203 208.805 57.0429 162.148 80.721C115.492 104.399 59.3636 119.981 1.69495 109.387L2.23696 106.437C59.0408 116.872 114.485 101.546 160.79 78.0458C207.095 54.5462 244.127 22.9387 264.028 1.03678L266.249 3.05428Z" fill="url(#paint0_linear_1093_2278)"/>
<defs>
<linearGradient id="paint0_linear_1093_2278" x1="234.59" y1="-43.1888" x2="102.358" y2="225.249" gradientUnits="userSpaceOnUse">
<stop stop-color="#EC9422" stop-opacity="0"/>
<stop offset="1" stop-color="#EC9422"/>
</linearGradient>
</defs>
</svg>
