<svg id="_x30_1._Facebook" xmlns="http://www.w3.org/2000/svg" width="8.847" height="16.364" viewBox="0 0 8.847 16.364">
  <path id="Icon_11_" d="M30.842,19.238H28.809c-.32,0-.434-.115-.434-.437q0-1.24,0-2.481c0-.318.121-.439.437-.439h2.03c0-.057,0-1.251,0-1.8a4.489,4.489,0,0,1,.558-2.3,3.391,3.391,0,0,1,1.827-1.518A4.515,4.515,0,0,1,34.792,10H36.8c.288,0,.416.128.417.418q0,1.167,0,2.333c0,.293-.123.411-.418.414-.55.006-1.1,0-1.649.024a.747.747,0,0,0-.846.845c-.013.607-.006,1.215-.006,1.844H36.67c.335,0,.45.115.45.452q0,1.234,0,2.468c0,.332-.108.438-.445.438H34.3v6.657c0,.355-.112.468-.462.468H31.272c-.309,0-.43-.12-.43-.43,0-2.168,0-6.619,0-6.7Z" transform="translate(-28.374 -9.999)" fill="#3d6ad6"/>
</svg>
