<svg width="324" height="95" viewBox="0 0 324 95" fill="none" xmlns="http://www.w3.org/2000/svg">
<path d="M8.71241 32.3802V7.36025H0.0724121V0.880247H24.6424V7.36025H15.9574V32.3802H8.71241ZM25.5779 32.3802V10.6902H32.4629V15.2352C32.8229 13.6752 33.5579 12.4752 34.6679 11.6352C35.8079 10.7652 37.0679 10.3302 38.4479 10.3302C39.1679 10.3302 39.7679 10.3902 40.2479 10.5102V16.9002C39.4379 16.8102 38.7479 16.7652 38.1779 16.7652C34.3679 16.7652 32.4629 19.1802 32.4629 24.0102V32.3802H25.5779ZM52.0158 32.9652C48.8658 32.9652 46.3758 31.9002 44.5458 29.7702C42.7158 27.6402 41.8008 24.8952 41.8008 21.5352C41.8008 18.2352 42.7458 15.5052 44.6358 13.3452C46.5258 11.1852 49.0158 10.1052 52.1058 10.1052C53.6358 10.1052 55.0008 10.4352 56.2008 11.0952C57.4008 11.7552 58.3008 12.6552 58.9008 13.7952V10.6902H65.7408V32.3802H58.9008V29.3202C58.3008 30.4002 57.3708 31.2852 56.1108 31.9752C54.8808 32.6352 53.5158 32.9652 52.0158 32.9652ZM53.9958 27.2502C55.6458 27.2502 56.9208 26.7102 57.8208 25.6302C58.7208 24.5502 59.1708 23.1852 59.1708 21.5352C59.1708 19.9152 58.7208 18.5652 57.8208 17.4852C56.9208 16.4052 55.6458 15.8652 53.9958 15.8652C52.4358 15.8652 51.1758 16.3902 50.2158 17.4402C49.2858 18.4902 48.8208 19.8552 48.8208 21.5352C48.8208 23.2152 49.2858 24.5952 50.2158 25.6752C51.1758 26.7252 52.4358 27.2502 53.9958 27.2502ZM86.9818 0.880247H93.8218V32.3802H86.9818V29.3202C86.3818 30.4002 85.4518 31.2852 84.1918 31.9752C82.9618 32.6352 81.5968 32.9652 80.0968 32.9652C76.9468 32.9652 74.4568 31.9002 72.6268 29.7702C70.7968 27.6402 69.8818 24.8952 69.8818 21.5352C69.8818 18.2352 70.8268 15.5052 72.7168 13.3452C74.6068 11.1852 77.0968 10.1052 80.1868 10.1052C81.7168 10.1052 83.0818 10.4352 84.2818 11.0952C85.4818 11.7552 86.3818 12.6552 86.9818 13.7952V0.880247ZM82.0768 27.2502C83.7268 27.2502 85.0018 26.7102 85.9018 25.6302C86.8018 24.5502 87.2518 23.1852 87.2518 21.5352C87.2518 19.9152 86.8018 18.5652 85.9018 17.4852C85.0018 16.4052 83.7268 15.8652 82.0768 15.8652C80.5168 15.8652 79.2568 16.3902 78.2968 17.4402C77.3668 18.4902 76.9018 19.8552 76.9018 21.5352C76.9018 23.2152 77.3668 24.5952 78.2968 25.6752C79.2568 26.7252 80.5168 27.2502 82.0768 27.2502ZM106.018 7.54025C105.208 8.35025 104.188 8.75525 102.958 8.75525C101.728 8.75525 100.708 8.35025 99.8979 7.54025C99.1179 6.73025 98.7279 5.74025 98.7279 4.57025C98.7279 3.37025 99.1179 2.36525 99.8979 1.55525C100.708 0.745248 101.728 0.340248 102.958 0.340248C104.188 0.340248 105.208 0.760248 106.018 1.60025C106.828 2.41025 107.233 3.40025 107.233 4.57025C107.233 5.74025 106.828 6.73025 106.018 7.54025ZM99.5379 32.3802V10.6902H106.378V32.3802H99.5379ZM133.436 20.4102C133.436 21.3402 133.376 22.3452 133.256 23.4252H117.236C117.296 24.8352 117.776 25.9152 118.676 26.6652C119.576 27.4152 120.791 27.7902 122.321 27.7902C124.451 27.7902 125.801 27.1452 126.371 25.8552H133.121C132.791 27.9852 131.621 29.7102 129.611 31.0302C127.631 32.3202 125.201 32.9652 122.321 32.9652C118.601 32.9652 115.676 31.9602 113.546 29.9502C111.446 27.9402 110.396 25.1352 110.396 21.5352C110.396 17.9952 111.446 15.2052 113.546 13.1652C115.676 11.1252 118.526 10.1052 122.096 10.1052C125.456 10.1052 128.186 11.0652 130.286 12.9852C132.386 14.8752 133.436 17.3502 133.436 20.4102ZM117.236 19.1502H126.641C126.581 16.2102 125.051 14.7402 122.051 14.7402C120.581 14.7402 119.411 15.1452 118.541 15.9552C117.701 16.7352 117.266 17.8002 117.236 19.1502ZM146.148 32.9652C143.058 32.9652 140.568 32.3202 138.678 31.0302C136.818 29.7102 135.888 27.9852 135.888 25.8552H142.728C142.728 26.6052 143.058 27.2202 143.718 27.7002C144.378 28.1502 145.233 28.3752 146.283 28.3752C147.033 28.3752 147.633 28.2102 148.083 27.8802C148.563 27.5202 148.803 27.0252 148.803 26.3952C148.803 25.8852 148.638 25.4802 148.308 25.1802C147.978 24.8502 147.363 24.5802 146.463 24.3702L141.918 23.2452C138.288 22.3452 136.473 20.2302 136.473 16.9002C136.473 14.8602 137.313 13.2252 138.993 11.9952C140.703 10.7352 142.953 10.1052 145.743 10.1052C148.803 10.1052 151.173 10.6902 152.853 11.8602C154.563 13.0002 155.418 14.6502 155.418 16.8102H148.623C148.623 15.2502 147.633 14.4702 145.653 14.4702C144.903 14.4702 144.303 14.6352 143.853 14.9652C143.403 15.2952 143.178 15.7152 143.178 16.2252C143.178 17.1852 143.973 17.8752 145.563 18.2952L150.153 19.5552C153.813 20.5152 155.643 22.6002 155.643 25.8102C155.643 28.0302 154.788 29.7852 153.078 31.0752C151.368 32.3352 149.058 32.9652 146.148 32.9652ZM2.90741 94.3802V62.8802H14.7874C19.6774 62.8802 23.5774 64.3952 26.4874 67.4252C29.3974 70.4552 30.8524 74.1902 30.8524 78.6302C30.8524 83.0702 29.3974 86.8052 26.4874 89.8352C23.6074 92.8652 19.7074 94.3802 14.7874 94.3802H2.90741ZM10.1974 88.2602H14.1124C17.0524 88.2602 19.3174 87.3302 20.9074 85.4702C22.5274 83.5802 23.3374 81.3002 23.3374 78.6302C23.3374 75.9602 22.5274 73.6952 20.9074 71.8352C19.3174 69.9452 17.0524 69.0002 14.1124 69.0002H10.1974V88.2602ZM45.7717 94.9652C42.0817 94.9652 39.1417 93.9002 36.9517 91.7702C34.7917 89.6402 33.7117 86.8952 33.7117 83.5352C33.7117 80.1752 34.7917 77.4302 36.9517 75.3002C39.1417 73.1702 42.0817 72.1052 45.7717 72.1052C49.4317 72.1052 52.3417 73.1702 54.5017 75.3002C56.6917 77.4302 57.7867 80.1752 57.7867 83.5352C57.7867 86.8952 56.6917 89.6402 54.5017 91.7702C52.3417 93.9002 49.4317 94.9652 45.7717 94.9652ZM45.7717 89.1602C47.3617 89.1602 48.6217 88.6502 49.5517 87.6302C50.4817 86.5802 50.9467 85.2152 50.9467 83.5352C50.9467 81.8552 50.4817 80.5052 49.5517 79.4852C48.6217 78.4352 47.3617 77.9102 45.7717 77.9102C44.1517 77.9102 42.8767 78.4352 41.9467 79.4852C41.0467 80.5052 40.5967 81.8552 40.5967 83.5352C40.5967 85.2152 41.0467 86.5802 41.9467 87.6302C42.8767 88.6502 44.1517 89.1602 45.7717 89.1602ZM65.996 94.3802L58.166 72.6902H65.366L69.281 85.8302L72.971 72.6902H79.676L83.366 85.8302L87.281 72.6902H94.436L86.651 94.3802H80.486L76.301 81.1952L72.161 94.3802H65.996ZM97.4725 94.3802V72.6902H104.357V75.8402C105.647 73.3502 107.987 72.1052 111.377 72.1052C116.657 72.1052 119.297 75.0602 119.297 80.9702V94.3802H112.367V83.2202C112.367 81.3602 112.067 80.0102 111.467 79.1702C110.897 78.3302 109.922 77.9102 108.542 77.9102C105.752 77.9102 104.357 79.6202 104.357 83.0402V94.3802H97.4725ZM124.675 94.3802V62.8802H131.56V94.3802H124.675ZM147.593 94.9652C143.903 94.9652 140.963 93.9002 138.773 91.7702C136.613 89.6402 135.533 86.8952 135.533 83.5352C135.533 80.1752 136.613 77.4302 138.773 75.3002C140.963 73.1702 143.903 72.1052 147.593 72.1052C151.253 72.1052 154.163 73.1702 156.323 75.3002C158.513 77.4302 159.608 80.1752 159.608 83.5352C159.608 86.8952 158.513 89.6402 156.323 91.7702C154.163 93.9002 151.253 94.9652 147.593 94.9652ZM147.593 89.1602C149.183 89.1602 150.443 88.6502 151.373 87.6302C152.303 86.5802 152.768 85.2152 152.768 83.5352C152.768 81.8552 152.303 80.5052 151.373 79.4852C150.443 78.4352 149.183 77.9102 147.593 77.9102C145.973 77.9102 144.698 78.4352 143.768 79.4852C142.868 80.5052 142.418 81.8552 142.418 83.5352C142.418 85.2152 142.868 86.5802 143.768 87.6302C144.698 88.6502 145.973 89.1602 147.593 89.1602ZM172.558 94.9652C169.408 94.9652 166.918 93.9002 165.088 91.7702C163.258 89.6402 162.343 86.8952 162.343 83.5352C162.343 80.2352 163.288 77.5052 165.178 75.3452C167.068 73.1852 169.558 72.1052 172.648 72.1052C174.178 72.1052 175.543 72.4352 176.743 73.0952C177.943 73.7552 178.843 74.6552 179.443 75.7952V72.6902H186.283V94.3802H179.443V91.3202C178.843 92.4002 177.913 93.2852 176.653 93.9752C175.423 94.6352 174.058 94.9652 172.558 94.9652ZM174.538 89.2502C176.188 89.2502 177.463 88.7102 178.363 87.6302C179.263 86.5502 179.713 85.1852 179.713 83.5352C179.713 81.9152 179.263 80.5652 178.363 79.4852C177.463 78.4052 176.188 77.8652 174.538 77.8652C172.978 77.8652 171.718 78.3902 170.758 79.4402C169.828 80.4902 169.363 81.8552 169.363 83.5352C169.363 85.2152 169.828 86.5952 170.758 87.6752C171.718 88.7252 172.978 89.2502 174.538 89.2502ZM207.524 62.8802H214.364V94.3802H207.524V91.3202C206.924 92.4002 205.994 93.2852 204.734 93.9752C203.504 94.6352 202.139 94.9652 200.639 94.9652C197.489 94.9652 194.999 93.9002 193.169 91.7702C191.339 89.6402 190.424 86.8952 190.424 83.5352C190.424 80.2352 191.369 77.5052 193.259 75.3452C195.149 73.1852 197.639 72.1052 200.729 72.1052C202.259 72.1052 203.624 72.4352 204.824 73.0952C206.024 73.7552 206.924 74.6552 207.524 75.7952V62.8802ZM202.619 89.2502C204.269 89.2502 205.544 88.7102 206.444 87.6302C207.344 86.5502 207.794 85.1852 207.794 83.5352C207.794 81.9152 207.344 80.5652 206.444 79.4852C205.544 78.4052 204.269 77.8652 202.619 77.8652C201.059 77.8652 199.799 78.3902 198.839 79.4402C197.909 80.4902 197.444 81.8552 197.444 83.5352C197.444 85.2152 197.909 86.5952 198.839 87.6752C199.799 88.7252 201.059 89.2502 202.619 89.2502ZM244.927 72.1052C250.207 72.1052 252.847 75.0602 252.847 80.9702V94.3802H245.917V83.2202C245.917 81.3602 245.617 80.0102 245.017 79.1702C244.447 78.3302 243.472 77.9102 242.092 77.9102C239.302 77.9102 237.907 79.6202 237.907 83.0402V94.3802H231.022V62.8802H237.907V75.8402C239.197 73.3502 241.537 72.1052 244.927 72.1052ZM279.686 82.4102C279.686 83.3402 279.626 84.3452 279.506 85.4252H263.486C263.546 86.8352 264.026 87.9152 264.926 88.6652C265.826 89.4152 267.041 89.7902 268.571 89.7902C270.701 89.7902 272.051 89.1452 272.621 87.8552H279.371C279.041 89.9852 277.871 91.7102 275.861 93.0302C273.881 94.3202 271.451 94.9652 268.571 94.9652C264.851 94.9652 261.926 93.9602 259.796 91.9502C257.696 89.9402 256.646 87.1352 256.646 83.5352C256.646 79.9952 257.696 77.2052 259.796 75.1652C261.926 73.1252 264.776 72.1052 268.346 72.1052C271.706 72.1052 274.436 73.0652 276.536 74.9852C278.636 76.8752 279.686 79.3502 279.686 82.4102ZM263.486 81.1502H272.891C272.831 78.2102 271.301 76.7402 268.301 76.7402C266.831 76.7402 265.661 77.1452 264.791 77.9552C263.951 78.7352 263.516 79.8002 263.486 81.1502ZM283.625 94.3802V72.6902H290.51V77.2352C290.87 75.6752 291.605 74.4752 292.715 73.6352C293.855 72.7652 295.115 72.3302 296.495 72.3302C297.215 72.3302 297.815 72.3902 298.295 72.5102V78.9002C297.485 78.8102 296.795 78.7652 296.225 78.7652C292.415 78.7652 290.51 81.1802 290.51 86.0102V94.3802H283.625ZM323.192 82.4102C323.192 83.3402 323.132 84.3452 323.012 85.4252H306.992C307.052 86.8352 307.532 87.9152 308.432 88.6652C309.332 89.4152 310.547 89.7902 312.077 89.7902C314.207 89.7902 315.557 89.1452 316.127 87.8552H322.877C322.547 89.9852 321.377 91.7102 319.367 93.0302C317.387 94.3202 314.957 94.9652 312.077 94.9652C308.357 94.9652 305.432 93.9602 303.302 91.9502C301.202 89.9402 300.152 87.1352 300.152 83.5352C300.152 79.9952 301.202 77.2052 303.302 75.1652C305.432 73.1252 308.282 72.1052 311.852 72.1052C315.212 72.1052 317.942 73.0652 320.042 74.9852C322.142 76.8752 323.192 79.3502 323.192 82.4102ZM306.992 81.1502H316.397C316.337 78.2102 314.807 76.7402 311.807 76.7402C310.337 76.7402 309.167 77.1452 308.297 77.9552C307.457 78.7352 307.022 79.8002 306.992 81.1502Z" fill="url(#paint0_linear_1093_2201)"/>
<defs>
<linearGradient id="paint0_linear_1093_2201" x1="-0.152586" y1="51.2808" x2="451.011" y2="51.2808" gradientUnits="userSpaceOnUse">
<stop stop-color="#EC9422"/>
<stop offset="1" stop-color="#AE7CF3"/>
</linearGradient>
</defs>
</svg>
