<svg id="search" xmlns="http://www.w3.org/2000/svg" width="17.727" height="17.727" viewBox="0 0 17.727 17.727">
  <path id="Path_7" data-name="Path 7" d="M3.929,144.193l-.617,2.3-2.255.048a8.879,8.879,0,0,1-.065-8.277h0L3,138.636l.88,2a5.29,5.29,0,0,0,.05,3.562Z" transform="translate(0 -133.481)" fill="#fbbb00"/>
  <path id="Path_8" data-name="Path 8" d="M270.142,208.176a8.86,8.86,0,0,1-3.16,8.568h0l-2.529-.129-.358-2.234a5.283,5.283,0,0,0,2.273-2.7h-4.74v-3.506h8.514Z" transform="translate(-252.57 -200.968)" fill="#518ef8"/>
  <path id="Path_9" data-name="Path 9" d="M43.865,314.472h0a8.866,8.866,0,0,1-13.356-2.712l2.872-2.351a5.272,5.272,0,0,0,7.6,2.7Z" transform="translate(-29.453 -298.696)" fill="#28b446"/>
  <path id="Path_10" data-name="Path 10" d="M42.154,2.041,39.283,4.391a5.271,5.271,0,0,0-7.771,2.76L28.624,4.787h0a8.865,8.865,0,0,1,13.53-2.747Z" transform="translate(-27.633)" fill="#f14336"/>
</svg>
