<svg xmlns="http://www.w3.org/2000/svg" width="53" height="53" viewBox="0 0 53 53">
  <g id="Group_6777" data-name="Group 6777" transform="translate(-47 -714)">
    <circle id="Ellipse_4" data-name="Ellipse 4" cx="26.5" cy="26.5" r="26.5" transform="translate(47 714)" fill="#d65bff"/>
    <g id="layer1" transform="translate(58.413 445.405)">
      <path id="path5086" d="M21.242,280.6l-.05,0a.5.5,0,0,0-.3.144l-15,14.995h0l4.854,4.853v4h2.5a.5.5,0,0,0,.473-.657l-.34-1.025,1.026-.344a.5.5,0,0,0,.313-.631l-.34-1.026,1.022-.343a.5.5,0,0,0,.317-.632l-.343-1.025,1.026-.344a.5.5,0,0,0,.317-.631l-.34-1.026,1.022-.339a.5.5,0,0,0,.317-.636l-.344-1.025,1.026-.34a.5.5,0,0,0,.317-.635l-.343-1.026,1.025-.339a.5.5,0,0,0,.317-.636l-.343-1.021,1.026-.344a.5.5,0,0,0,.317-.631l-.344-1.026,1.026-.343a.5.5,0,0,0,.317-.632l-.344-1.025,1.026-.344a.5.5,0,0,0,.317-.631l-.343-1.026,1.025-.343a.5.5,0,0,0,.317-.632l-.5-1.5a.5.5,0,0,0-.122-.2l-1.5-1.5a.5.5,0,0,0-.36-.146Z" transform="translate(3.833)" fill="#fff"/>
      <path id="path5102" d="M9.579,288.269a.5.5,0,0,0-.347.147l-7.5,7.5a.5.5,0,0,0-.147.354v2.5a.5.5,0,0,0,.5.5,3.791,3.791,0,0,1,2.107.361,12.9,12.9,0,0,1,1.539,1.495l1.8,1.8a2.9,2.9,0,0,0,4.1,0l3.3-3.306a.5.5,0,0,0,.148-.354v-5.5a.5.5,0,0,0-.148-.354l-5-5a.5.5,0,0,0-.361-.147Zm-2.743,6.166a1.5,1.5,0,0,1,1.06.437l3.335,3.334a1.5,1.5,0,0,1,0,2.119l-.337.337a1.5,1.5,0,0,1-2.119,0L5.44,297.328a1.509,1.509,0,0,1,0-2.121l.336-.337a1.493,1.493,0,0,1,1.061-.434Z" transform="translate(0 6.824)" fill="#fed94a"/>
      <g id="Group_6772" data-name="Group 6772" transform="translate(9.086 298.591)">
        <path id="path15392" d="M6.556,290.62a.5.5,0,1,1-.5-.5A.5.5,0,0,1,6.556,290.62Z" transform="translate(-5.556 -290.12)" fill="#dbe9ee"/>
        <path id="path15394" d="M7.614,291.414a.5.5,0,1,1-.5-.5.5.5,0,0,1,.5.5Z" transform="translate(-4.615 -289.414)" fill="#dbe9ee"/>
        <path id="path15396" d="M8.143,292.737a.5.5,0,1,1-.5-.5.5.5,0,0,1,.5.5Z" transform="translate(-4.145 -288.238)" fill="#dbe9ee"/>
      </g>
    </g>
  </g>
</svg>
