<svg width="475" height="139" viewBox="0 0 475 139" fill="none" xmlns="http://www.w3.org/2000/svg">
<path d="M79.3945 42V-2.86102e-06H105.074V8.16H89.1145V19.5H105.074V27.48H89.1145V42H79.3945ZM111.555 42V13.08H120.735V19.14C121.215 17.06 122.195 15.46 123.675 14.34C125.195 13.18 126.875 12.6 128.715 12.6C129.675 12.6 130.475 12.68 131.115 12.84V21.36C130.035 21.24 129.115 21.18 128.355 21.18C123.275 21.18 120.735 24.4 120.735 30.84V42H111.555ZM164.312 26.04C164.312 27.28 164.232 28.62 164.072 30.06H142.712C142.792 31.94 143.432 33.38 144.632 34.38C145.832 35.38 147.452 35.88 149.492 35.88C152.332 35.88 154.132 35.02 154.892 33.3H163.892C163.452 36.14 161.892 38.44 159.212 40.2C156.572 41.92 153.332 42.78 149.492 42.78C144.532 42.78 140.632 41.44 137.792 38.76C134.992 36.08 133.592 32.34 133.592 27.54C133.592 22.82 134.992 19.1 137.792 16.38C140.632 13.66 144.432 12.3 149.192 12.3C153.672 12.3 157.312 13.58 160.112 16.14C162.912 18.66 164.312 21.96 164.312 26.04ZM142.712 24.36H155.252C155.172 20.44 153.132 18.48 149.132 18.48C147.172 18.48 145.612 19.02 144.452 20.1C143.332 21.14 142.752 22.56 142.712 24.36ZM190.732 13.08H199.852V54H190.732V37.92C189.932 39.36 188.692 40.54 187.012 41.46C185.372 42.34 183.552 42.78 181.552 42.78C177.352 42.78 174.032 41.36 171.592 38.52C169.152 35.68 167.932 32.02 167.932 27.54C167.932 23.14 169.192 19.5 171.712 16.62C174.232 13.74 177.552 12.3 181.672 12.3C183.712 12.3 185.532 12.74 187.132 13.62C188.732 14.5 189.932 15.7 190.732 17.22V13.08ZM184.192 35.16C186.392 35.16 188.092 34.44 189.292 33C190.492 31.56 191.092 29.74 191.092 27.54C191.092 25.38 190.492 23.58 189.292 22.14C188.092 20.7 186.392 19.98 184.192 19.98C182.112 19.98 180.432 20.68 179.152 22.08C177.912 23.48 177.292 25.3 177.292 27.54C177.292 29.78 177.912 31.62 179.152 33.06C180.432 34.46 182.112 35.16 184.192 35.16ZM217.853 42.78C214.413 42.78 211.773 41.76 209.933 39.72C208.093 37.64 207.173 34.72 207.173 30.96V13.08H216.473V28.92C216.473 33 218.073 35.04 221.273 35.04C224.993 35.04 226.853 32.9 226.853 28.62V13.08H235.973V42H226.853V37.86C225.133 41.14 222.133 42.78 217.853 42.78ZM272.007 26.04C272.007 27.28 271.927 28.62 271.767 30.06H250.407C250.487 31.94 251.127 33.38 252.327 34.38C253.527 35.38 255.147 35.88 257.187 35.88C260.027 35.88 261.827 35.02 262.587 33.3H271.587C271.147 36.14 269.587 38.44 266.907 40.2C264.267 41.92 261.027 42.78 257.187 42.78C252.227 42.78 248.327 41.44 245.487 38.76C242.687 36.08 241.287 32.34 241.287 27.54C241.287 22.82 242.687 19.1 245.487 16.38C248.327 13.66 252.127 12.3 256.887 12.3C261.367 12.3 265.007 13.58 267.807 16.14C270.607 18.66 272.007 21.96 272.007 26.04ZM250.407 24.36H262.947C262.867 20.44 260.827 18.48 256.827 18.48C254.867 18.48 253.307 19.02 252.147 20.1C251.027 21.14 250.447 22.56 250.407 24.36ZM277.259 42V13.08H286.439V17.28C288.159 13.96 291.279 12.3 295.799 12.3C302.839 12.3 306.359 16.24 306.359 24.12V42H297.119V27.12C297.119 24.64 296.719 22.84 295.919 21.72C295.159 20.6 293.859 20.04 292.019 20.04C288.299 20.04 286.439 22.32 286.439 26.88V42H277.259ZM328.356 34.86C329.636 34.86 330.696 34.8 331.536 34.68V42C329.776 42.32 327.736 42.48 325.416 42.48C324.376 42.48 323.456 42.42 322.656 42.3C321.856 42.18 320.956 41.92 319.956 41.52C318.956 41.08 318.136 40.5 317.496 39.78C316.856 39.06 316.296 38.02 315.816 36.66C315.376 35.3 315.156 33.7 315.156 31.86V20.34H310.596V13.08H315.156V4.5H324.336V13.08H330.876V20.34H324.336V29.94C324.336 31.9 324.676 33.22 325.356 33.9C326.036 34.54 327.036 34.86 328.356 34.86ZM336.79 42V-2.86102e-06H345.97V42H336.79ZM373.108 13.08H382.288V41.1C382.288 45.58 380.908 49.06 378.148 51.54C375.548 53.78 372.008 54.9 367.528 54.9C362.848 54.9 359.288 53.9 356.848 51.9C354.488 49.9 353.288 47.36 353.248 44.28H362.488C362.688 46.88 364.368 48.18 367.528 48.18C371.248 48.18 373.108 46.02 373.108 41.7V37.2C371.428 40.4 368.368 42 363.928 42C360.368 42 357.688 40.92 355.888 38.76C354.128 36.6 353.248 33.64 353.248 29.88V13.08H362.428V28.5C362.428 32.66 364.128 34.74 367.528 34.74C369.328 34.74 370.708 34.1 371.668 32.82C372.628 31.5 373.108 29.7 373.108 27.42V13.08ZM28.5829 130L27.1429 124.9H12.2629L10.8229 130H0.562891L14.7829 88H24.5629L38.8429 130H28.5829ZM14.4229 117.28H24.9829L19.7029 98.62L14.4229 117.28ZM54.6393 130.78C50.5193 130.78 47.1993 129.92 44.6793 128.2C42.1993 126.44 40.9593 124.14 40.9593 121.3H50.0793C50.0793 122.3 50.5193 123.12 51.3993 123.76C52.2793 124.36 53.4193 124.66 54.8193 124.66C55.8193 124.66 56.6193 124.44 57.2193 124C57.8593 123.52 58.1793 122.86 58.1793 122.02C58.1793 121.34 57.9593 120.8 57.5193 120.4C57.0793 119.96 56.2593 119.6 55.0593 119.32L48.9993 117.82C44.1593 116.62 41.7393 113.8 41.7393 109.36C41.7393 106.64 42.8593 104.46 45.0993 102.82C47.3793 101.14 50.3793 100.3 54.0993 100.3C58.1793 100.3 61.3393 101.08 63.5793 102.64C65.8593 104.16 66.9993 106.36 66.9993 109.24H57.9393C57.9393 107.16 56.6193 106.12 53.9793 106.12C52.9793 106.12 52.1793 106.34 51.5793 106.78C50.9793 107.22 50.6793 107.78 50.6793 108.46C50.6793 109.74 51.7393 110.66 53.8593 111.22L59.9793 112.9C64.8593 114.18 67.2993 116.96 67.2993 121.24C67.2993 124.2 66.1593 126.54 63.8793 128.26C61.5993 129.94 58.5193 130.78 54.6393 130.78ZM102.581 130H91.3607L82.1207 117.4V130H73.0007V88H82.1207V113.26L91.6007 101.08H102.401L90.8807 114.76L102.581 130ZM132.73 114.04C132.73 115.28 132.65 116.62 132.49 118.06H111.13C111.21 119.94 111.85 121.38 113.05 122.38C114.25 123.38 115.87 123.88 117.91 123.88C120.75 123.88 122.55 123.02 123.31 121.3H132.31C131.87 124.14 130.31 126.44 127.63 128.2C124.99 129.92 121.75 130.78 117.91 130.78C112.95 130.78 109.05 129.44 106.21 126.76C103.41 124.08 102.01 120.34 102.01 115.54C102.01 110.82 103.41 107.1 106.21 104.38C109.05 101.66 112.85 100.3 117.61 100.3C122.09 100.3 125.73 101.58 128.53 104.14C131.33 106.66 132.73 109.96 132.73 114.04ZM111.13 112.36H123.67C123.59 108.44 121.55 106.48 117.55 106.48C115.59 106.48 114.03 107.02 112.87 108.1C111.75 109.14 111.17 110.56 111.13 112.36ZM159.15 88H168.27V130H159.15V125.92C158.35 127.36 157.11 128.54 155.43 129.46C153.79 130.34 151.97 130.78 149.97 130.78C145.77 130.78 142.45 129.36 140.01 126.52C137.57 123.68 136.35 120.02 136.35 115.54C136.35 111.14 137.61 107.5 140.13 104.62C142.65 101.74 145.97 100.3 150.09 100.3C152.13 100.3 153.95 100.74 155.55 101.62C157.15 102.5 158.35 103.7 159.15 105.22V88ZM152.61 123.16C154.81 123.16 156.51 122.44 157.71 121C158.91 119.56 159.51 117.74 159.51 115.54C159.51 113.38 158.91 111.58 157.71 110.14C156.51 108.7 154.81 107.98 152.61 107.98C150.53 107.98 148.85 108.68 147.57 110.08C146.33 111.48 145.71 113.3 145.71 115.54C145.71 117.78 146.33 119.62 147.57 121.06C148.85 122.46 150.53 123.16 152.61 123.16Z" fill="#343432"/>
<path d="M233.201 109C233.201 113.4 232.121 117.4 229.961 121C227.841 124.6 224.861 127.28 221.021 129.04L225.161 134.44L216.641 138.76L210.941 131.2H210.761C203.961 131.2 198.521 129.06 194.441 124.78C190.361 120.46 188.321 115.2 188.321 109C188.321 102.8 190.361 97.56 194.441 93.28C198.521 88.96 203.961 86.8 210.761 86.8C217.561 86.8 223.001 88.96 227.081 93.28C231.161 97.56 233.201 102.8 233.201 109ZM210.761 122.5C214.601 122.5 217.601 121.22 219.761 118.66C221.961 116.06 223.061 112.84 223.061 109C223.061 105.16 221.961 101.96 219.761 99.4C217.601 96.8 214.601 95.5 210.761 95.5C206.881 95.5 203.841 96.8 201.641 99.4C199.481 101.96 198.421 105.16 198.461 109C198.421 112.84 199.481 116.06 201.641 118.66C203.841 121.22 206.881 122.5 210.761 122.5ZM248.908 130.78C245.468 130.78 242.828 129.76 240.988 127.72C239.148 125.64 238.228 122.72 238.228 118.96V101.08H247.528V116.92C247.528 121 249.128 123.04 252.328 123.04C256.048 123.04 257.908 120.9 257.908 116.62V101.08H267.028V130H257.908V125.86C256.188 129.14 253.188 130.78 248.908 130.78ZM303.062 114.04C303.062 115.28 302.982 116.62 302.822 118.06H281.462C281.542 119.94 282.182 121.38 283.382 122.38C284.582 123.38 286.202 123.88 288.242 123.88C291.082 123.88 292.882 123.02 293.642 121.3H302.642C302.202 124.14 300.642 126.44 297.962 128.2C295.322 129.92 292.082 130.78 288.242 130.78C283.282 130.78 279.382 129.44 276.542 126.76C273.742 124.08 272.342 120.34 272.342 115.54C272.342 110.82 273.742 107.1 276.542 104.38C279.382 101.66 283.182 100.3 287.942 100.3C292.422 100.3 296.062 101.58 298.862 104.14C301.662 106.66 303.062 109.96 303.062 114.04ZM281.462 112.36H294.002C293.922 108.44 291.882 106.48 287.882 106.48C285.922 106.48 284.362 107.02 283.202 108.1C282.082 109.14 281.502 110.56 281.462 112.36ZM320.01 130.78C315.89 130.78 312.57 129.92 310.05 128.2C307.57 126.44 306.33 124.14 306.33 121.3H315.45C315.45 122.3 315.89 123.12 316.77 123.76C317.65 124.36 318.79 124.66 320.19 124.66C321.19 124.66 321.99 124.44 322.59 124C323.23 123.52 323.55 122.86 323.55 122.02C323.55 121.34 323.33 120.8 322.89 120.4C322.45 119.96 321.63 119.6 320.43 119.32L314.37 117.82C309.53 116.62 307.11 113.8 307.11 109.36C307.11 106.64 308.23 104.46 310.47 102.82C312.75 101.14 315.75 100.3 319.47 100.3C323.55 100.3 326.71 101.08 328.95 102.64C331.23 104.16 332.37 106.36 332.37 109.24H323.31C323.31 107.16 321.99 106.12 319.35 106.12C318.35 106.12 317.55 106.34 316.95 106.78C316.35 107.22 316.05 107.78 316.05 108.46C316.05 109.74 317.11 110.66 319.23 111.22L325.35 112.9C330.23 114.18 332.67 116.96 332.67 121.24C332.67 124.2 331.53 126.54 329.25 128.26C326.97 129.94 323.89 130.78 320.01 130.78ZM353.142 122.86C354.422 122.86 355.482 122.8 356.322 122.68V130C354.562 130.32 352.522 130.48 350.202 130.48C349.162 130.48 348.242 130.42 347.442 130.3C346.642 130.18 345.742 129.92 344.742 129.52C343.742 129.08 342.922 128.5 342.282 127.78C341.642 127.06 341.082 126.02 340.602 124.66C340.162 123.3 339.942 121.7 339.942 119.86V108.34H335.382V101.08H339.942V92.5H349.122V101.08H355.662V108.34H349.122V117.94C349.122 119.9 349.462 121.22 350.142 121.9C350.822 122.54 351.822 122.86 353.142 122.86ZM370.215 96.88C369.135 97.96 367.775 98.5 366.135 98.5C364.495 98.5 363.135 97.96 362.055 96.88C361.015 95.8 360.495 94.48 360.495 92.92C360.495 91.32 361.015 89.98 362.055 88.9C363.135 87.82 364.495 87.28 366.135 87.28C367.775 87.28 369.135 87.84 370.215 88.96C371.295 90.04 371.835 91.36 371.835 92.92C371.835 94.48 371.295 95.8 370.215 96.88ZM361.575 130V101.08H370.695V130H361.575ZM392.133 130.78C387.213 130.78 383.293 129.36 380.373 126.52C377.493 123.68 376.053 120.02 376.053 115.54C376.053 111.06 377.493 107.4 380.373 104.56C383.293 101.72 387.213 100.3 392.133 100.3C397.013 100.3 400.893 101.72 403.773 104.56C406.693 107.4 408.153 111.06 408.153 115.54C408.153 120.02 406.693 123.68 403.773 126.52C400.893 129.36 397.013 130.78 392.133 130.78ZM392.133 123.04C394.253 123.04 395.933 122.36 397.173 121C398.413 119.6 399.033 117.78 399.033 115.54C399.033 113.3 398.413 111.5 397.173 110.14C395.933 108.74 394.253 108.04 392.133 108.04C389.973 108.04 388.273 108.74 387.033 110.14C385.833 111.5 385.233 113.3 385.233 115.54C385.233 117.78 385.833 119.6 387.033 121C388.273 122.36 389.973 123.04 392.133 123.04ZM413.43 130V101.08H422.61V105.28C424.33 101.96 427.45 100.3 431.97 100.3C439.01 100.3 442.53 104.24 442.53 112.12V130H433.29V115.12C433.29 112.64 432.89 110.84 432.09 109.72C431.33 108.6 430.03 108.04 428.19 108.04C424.47 108.04 422.61 110.32 422.61 114.88V130H413.43ZM461.456 130.78C457.336 130.78 454.016 129.92 451.496 128.2C449.016 126.44 447.776 124.14 447.776 121.3H456.896C456.896 122.3 457.336 123.12 458.216 123.76C459.096 124.36 460.236 124.66 461.636 124.66C462.636 124.66 463.436 124.44 464.036 124C464.676 123.52 464.996 122.86 464.996 122.02C464.996 121.34 464.776 120.8 464.336 120.4C463.896 119.96 463.076 119.6 461.876 119.32L455.816 117.82C450.976 116.62 448.556 113.8 448.556 109.36C448.556 106.64 449.676 104.46 451.916 102.82C454.196 101.14 457.196 100.3 460.916 100.3C464.996 100.3 468.156 101.08 470.396 102.64C472.676 104.16 473.816 106.36 473.816 109.24H464.756C464.756 107.16 463.436 106.12 460.796 106.12C459.796 106.12 458.996 106.34 458.396 106.78C457.796 107.22 457.496 107.78 457.496 108.46C457.496 109.74 458.556 110.66 460.676 111.22L466.796 112.9C471.676 114.18 474.116 116.96 474.116 121.24C474.116 124.2 472.976 126.54 470.696 128.26C468.416 129.94 465.336 130.78 461.456 130.78Z" fill="url(#paint0_linear_1093_2338)"/>
<defs>
<linearGradient id="paint0_linear_1093_2338" x1="-165" y1="-22" x2="701.196" y2="293.04" gradientUnits="userSpaceOnUse">
<stop stop-color="#8338EC"/>
<stop offset="1" stop-color="#F2B769"/>
</linearGradient>
</defs>
</svg>
