<svg xmlns="http://www.w3.org/2000/svg" width="53" height="53" viewBox="0 0 53 53">
  <g id="Group_6784" data-name="Group 6784" transform="translate(-47 -535)">
    <circle id="Ellipse_9" data-name="Ellipse 9" cx="26.5" cy="26.5" r="26.5" transform="translate(47 535)" fill="#00c3ff"/>
    <g id="Flat_13_" transform="translate(28 547)">
      <g id="Group_6781" data-name="Group 6781" transform="translate(39.969 0.174)">
        <path id="Path_104" data-name="Path 104" d="M179.233,34.28,171.265,5.217c-.056-.2-.241.408-.452.408h-2.344a.469.469,0,0,0-.373.184c-.089.116-.118-.486-.079-.345l7.969,29.063a.469.469,0,0,0,.452.345h2.344a.469.469,0,0,0,.452-.593Z" transform="translate(-168 -5.046)" fill="#ff9c62"/>
        <path id="Path_105" data-name="Path 105" d="M177.392,32.5,169.423,3.441a.469.469,0,0,1,.079-.408c.089-.116.227,1.222.373,1.222h-1.406c-.146,0-.284-1.338-.373-1.222a.469.469,0,0,0-.079.408L175.986,32.5a.469.469,0,0,0,.452.345h1.406A.469.469,0,0,1,177.392,32.5Z" transform="translate(-168 -3.022)" fill="#ff833b"/>
        <g id="Group_6780" data-name="Group 6780" transform="translate(2.344 3.107)">
          <path id="Path_106" data-name="Path 106" d="M214.563,56.938h-6.094a.469.469,0,0,1,0-.937h6.094a.469.469,0,0,1,0,.938Z" transform="translate(-208 -56)" fill="#fff"/>
          <path id="Path_107" data-name="Path 107" d="M238.563,144.938h-6.094a.469.469,0,0,1,0-.937h6.094a.469.469,0,0,1,0,.938Z" transform="translate(-230.594 -138.844)" fill="#fff"/>
          <path id="Path_108" data-name="Path 108" d="M262.563,232.938h-6.094a.469.469,0,0,1,0-.937h6.094a.469.469,0,0,1,0,.938Z" transform="translate(-253.188 -221.688)" fill="#fff"/>
          <path id="Path_109" data-name="Path 109" d="M286.563,320.938h-6.094a.469.469,0,0,1,0-.937h6.094a.469.469,0,0,1,0,.938Z" transform="translate(-275.781 -304.531)" fill="#fff"/>
          <path id="Path_110" data-name="Path 110" d="M310.563,408.938h-6.094a.469.469,0,0,1,0-.937h6.094a.469.469,0,0,1,0,.938Z" transform="translate(-298.375 -387.375)" fill="#fff"/>
        </g>
        <path id="Path_111" data-name="Path 111" d="M299.46,32.2,291.491,3.137c-.056-.2-.241.593-.452.593H288.7c-.146,0,.089-.869,0-.753s-.491.267-.452.408l7.969,29.062a.469.469,0,0,0,.452.345h2.344a.469.469,0,0,0,.452-.593Z" transform="translate(-281.195 -2.966)" fill="#ff9c62"/>
        <path id="Path_112" data-name="Path 112" d="M297.392,32.447,289.423,3.385a.469.469,0,0,1,.079-.408c.089-.116.227.753.373.753h-1.406c-.146,0-.284-.869-.373-.753a.469.469,0,0,0-.079.408l7.969,29.062a.469.469,0,0,0,.452.345h1.406A.469.469,0,0,1,297.392,32.447Z" transform="translate(-280.969 -2.966)" fill="#ff833b"/>
      </g>
      <g id="Group_6783" data-name="Group 6783" transform="translate(32 0)">
        <path id="Path_113" data-name="Path 113" d="M43.154.184A.469.469,0,0,0,42.781,0H40.438a.469.469,0,0,0-.452.345L32.017,29.407a.469.469,0,0,0,.452.593h2.344a.469.469,0,0,0,.452-.345L43.233.593a.469.469,0,0,0-.079-.408Z" transform="translate(-32 0)" fill="#ffed77"/>
        <path id="Path_114" data-name="Path 114" d="M33.5,29.816a.469.469,0,0,1-.079-.408L41.392.345A.469.469,0,0,1,41.844,0H40.438a.469.469,0,0,0-.452.345L32.017,29.407a.469.469,0,0,0,.452.593h1.406a.469.469,0,0,1-.373-.184Z" transform="translate(-32 0)" fill="#ffe11c"/>
        <g id="Group_6782" data-name="Group 6782" transform="translate(2.812 3.281)">
          <path id="Path_115" data-name="Path 115" d="M182.563,56.938h-6.094a.469.469,0,0,1,0-.937h6.094a.469.469,0,0,1,0,.938Z" transform="translate(-170.375 -56)" fill="#fff"/>
          <path id="Path_116" data-name="Path 116" d="M158.563,144.938h-6.094a.469.469,0,0,1,0-.937h6.094a.469.469,0,0,1,0,.938Z" transform="translate(-147.781 -138.844)" fill="#fff"/>
          <path id="Path_117" data-name="Path 117" d="M134.563,232.938h-6.094a.469.469,0,0,1,0-.937h6.094a.469.469,0,0,1,0,.938Z" transform="translate(-125.188 -221.688)" fill="#fff"/>
          <path id="Path_118" data-name="Path 118" d="M110.563,320.938h-6.094a.469.469,0,0,1,0-.937h6.094a.469.469,0,0,1,0,.938Z" transform="translate(-102.594 -304.531)" fill="#fff"/>
          <path id="Path_119" data-name="Path 119" d="M86.563,408.938H80.469a.469.469,0,0,1,0-.937h6.094a.469.469,0,0,1,0,.938Z" transform="translate(-80 -387.375)" fill="#fff"/>
        </g>
        <path id="Path_120" data-name="Path 120" d="M163.154.184A.469.469,0,0,0,162.781,0h-2.344a.469.469,0,0,0-.452.345l-7.969,29.063a.469.469,0,0,0,.452.593h2.344a.469.469,0,0,0,.452-.345L163.233.593a.469.469,0,0,0-.079-.408Z" transform="translate(-144.969 0)" fill="#ffed77"/>
        <path id="Path_121" data-name="Path 121" d="M153.5,29.816a.469.469,0,0,1-.079-.408L161.392.345A.469.469,0,0,1,161.844,0h-1.406a.469.469,0,0,0-.452.345l-7.969,29.063a.469.469,0,0,0,.452.593h1.406A.469.469,0,0,1,153.5,29.816Z" transform="translate(-144.969 0)" fill="#ffe11c"/>
      </g>
    </g>
  </g>
</svg>
