<svg width="443" height="53" viewBox="0 0 443 53" fill="none" xmlns="http://www.w3.org/2000/svg">
<path d="M0.817875 52V1.6H12.4819V21.976H29.9059V1.6H41.5699V52H29.9059V31.984H12.4819V52H0.817875ZM67.5726 52.936C61.6686 52.936 56.9646 51.232 53.4606 47.824C50.0046 44.416 48.2766 40.024 48.2766 34.648C48.2766 29.272 50.0046 24.88 53.4606 21.472C56.9646 18.064 61.6686 16.36 67.5726 16.36C73.4286 16.36 78.0846 18.064 81.5406 21.472C85.0446 24.88 86.7966 29.272 86.7966 34.648C86.7966 40.024 85.0446 44.416 81.5406 47.824C78.0846 51.232 73.4286 52.936 67.5726 52.936ZM67.5726 43.648C70.1166 43.648 72.1326 42.832 73.6206 41.2C75.1086 39.52 75.8526 37.336 75.8526 34.648C75.8526 31.96 75.1086 29.8 73.6206 28.168C72.1326 26.488 70.1166 25.648 67.5726 25.648C64.9806 25.648 62.9406 26.488 61.4526 28.168C60.0126 29.8 59.2926 31.96 59.2926 34.648C59.2926 37.336 60.0126 39.52 61.4526 41.2C62.9406 42.832 64.9806 43.648 67.5726 43.648ZM99.9315 52L87.4035 17.296H98.9235L105.188 38.32L111.092 17.296H121.82L127.724 38.32L133.988 17.296H145.436L132.98 52H123.116L116.42 30.904L109.796 52H99.9315ZM178.17 12.256C176.874 13.552 175.242 14.2 173.274 14.2C171.306 14.2 169.674 13.552 168.378 12.256C167.13 10.96 166.506 9.376 166.506 7.504C166.506 5.584 167.13 3.976 168.378 2.68C169.674 1.384 171.306 0.735999 173.274 0.735999C175.242 0.735999 176.874 1.408 178.17 2.752C179.466 4.048 180.114 5.632 180.114 7.504C180.114 9.376 179.466 10.96 178.17 12.256ZM167.802 52V17.296H178.746V52H167.802ZM206.127 43.432C207.663 43.432 208.935 43.36 209.943 43.216V52C207.831 52.384 205.383 52.576 202.599 52.576C201.351 52.576 200.247 52.504 199.287 52.36C198.327 52.216 197.247 51.904 196.047 51.424C194.847 50.896 193.863 50.2 193.095 49.336C192.327 48.472 191.655 47.224 191.079 45.592C190.551 43.96 190.287 42.04 190.287 39.832V26.008H184.815V17.296H190.287V7H201.303V17.296H209.151V26.008H201.303V37.528C201.303 39.88 201.711 41.464 202.527 42.28C203.343 43.048 204.543 43.432 206.127 43.432Z" fill="#343432"/>
<path d="M246.787 52L229.003 1.6H241.243L251.755 35.08L261.763 1.6H270.835L280.843 35.08L291.355 1.6H303.595L285.811 52H276.307L266.299 20.32L256.291 52H246.787ZM319.573 52.936C313.669 52.936 308.965 51.232 305.461 47.824C302.005 44.416 300.277 40.024 300.277 34.648C300.277 29.272 302.005 24.88 305.461 21.472C308.965 18.064 313.669 16.36 319.573 16.36C325.429 16.36 330.085 18.064 333.541 21.472C337.045 24.88 338.797 29.272 338.797 34.648C338.797 40.024 337.045 44.416 333.541 47.824C330.085 51.232 325.429 52.936 319.573 52.936ZM319.573 43.648C322.117 43.648 324.133 42.832 325.621 41.2C327.109 39.52 327.853 37.336 327.853 34.648C327.853 31.96 327.109 29.8 325.621 28.168C324.133 26.488 322.117 25.648 319.573 25.648C316.981 25.648 314.941 26.488 313.453 28.168C312.013 29.8 311.293 31.96 311.293 34.648C311.293 37.336 312.013 39.52 313.453 41.2C314.941 42.832 316.981 43.648 319.573 43.648ZM345.13 52V17.296H356.146V24.568C356.722 22.072 357.898 20.152 359.674 18.808C361.498 17.416 363.514 16.72 365.722 16.72C366.874 16.72 367.834 16.816 368.602 17.008V27.232C367.306 27.088 366.202 27.016 365.29 27.016C359.194 27.016 356.146 30.88 356.146 38.608V52H345.13ZM410.016 52H396.552L385.464 36.88V52H374.52V1.6H385.464V31.912L396.84 17.296H409.8L395.976 33.712L410.016 52ZM427.58 52.936C422.636 52.936 418.652 51.904 415.628 49.84C412.652 47.728 411.164 44.968 411.164 41.56H422.108C422.108 42.76 422.636 43.744 423.692 44.512C424.748 45.232 426.116 45.592 427.796 45.592C428.996 45.592 429.956 45.328 430.676 44.8C431.444 44.224 431.828 43.432 431.828 42.424C431.828 41.608 431.564 40.96 431.036 40.48C430.508 39.952 429.524 39.52 428.084 39.184L420.812 37.384C415.004 35.944 412.1 32.56 412.1 27.232C412.1 23.968 413.444 21.352 416.132 19.384C418.868 17.368 422.468 16.36 426.932 16.36C431.828 16.36 435.62 17.296 438.308 19.168C441.044 20.992 442.412 23.632 442.412 27.088H431.54C431.54 24.592 429.956 23.344 426.788 23.344C425.588 23.344 424.628 23.608 423.908 24.136C423.188 24.664 422.828 25.336 422.828 26.152C422.828 27.688 424.1 28.792 426.644 29.464L433.988 31.48C439.844 33.016 442.772 36.352 442.772 41.488C442.772 45.04 441.404 47.848 438.668 49.912C435.932 51.928 432.236 52.936 427.58 52.936Z" fill="url(#paint0_linear_1093_2218)"/>
<defs>
<linearGradient id="paint0_linear_1093_2218" x1="-193" y1="-3" x2="528.193" y2="450.475" gradientUnits="userSpaceOnUse">
<stop stop-color="#8338EC"/>
<stop offset="1" stop-color="#F2B769"/>
</linearGradient>
</defs>
</svg>
